<?xml version="1.0" standalone="no"?><svg xmlns="http://www.w3.org/2000/svg" viewBox="0 0 1440 320"><path fill="#67bce0" fill-opacity="1" d="M0,64L26.7,101.3C53.3,139,107,213,160,224C213.3,235,267,181,320,154.7C373.3,128,427,128,480,149.3C533.3,171,587,213,640,229.3C693.3,245,747,235,800,245.3C853.3,256,907,288,960,293.3C1013.3,299,1067,277,1120,266.7C1173.3,256,1227,256,1280,245.3C1333.3,235,1387,213,1413,202.7L1440,192L1440,320L1413.3,320C1386.7,320,1333,320,1280,320C1226.7,320,1173,320,1120,320C1066.7,320,1013,320,960,320C906.7,320,853,320,800,320C746.7,320,693,320,640,320C586.7,320,533,320,480,320C426.7,320,373,320,320,320C266.7,320,213,320,160,320C106.7,320,53,320,27,320L0,320Z"></path></svg>